<svg xmlns="http://www.w3.org/2000/svg" xmlns:xlink="http://www.w3.org/1999/xlink" version="1.1" x="0px" y="0px" viewBox="0 0 100 125" enable-background="new 0 0 100 100" xml:space="preserve">
    <!-- Add a black outline around the shape of the robot -->
    <g stroke="#000000" stroke-width="3" fill="none">

        <!-- Main robot body with a light blue fill -->
        <path fill="lightblue" d="M13.555,95h72.889c2.626,0,4.774-2.148,4.774-4.774V48.313c0-2.626-2.148-4.774-4.774-4.774h-33.67v-3.496v-2.257   c4.534-1.225,7.885-5.363,7.885-10.28c0-5.878-4.781-10.659-10.659-10.659S39.341,21.63,39.341,27.507   c0,4.917,3.351,9.054,7.885,10.28v2.257v3.496h-33.67c-2.626,0-4.774,2.148-4.774,4.774v41.913C8.781,92.852,10.93,95,13.555,95z    M57.365,66.723l4.534-7.854c0.91-1.576,2.591-2.547,4.411-2.547h9.068c1.82,0,3.501,0.971,4.411,2.547l4.534,7.854   c0.91,1.576,0.91,3.518,0,5.094L79.79,79.67c-0.91,1.576-2.591,2.547-4.411,2.547H66.31c-1.82,0-3.501-0.971-4.411-2.547   l-4.534-7.854C56.455,70.24,56.455,68.299,57.365,66.723z M44.889,27.507c0-2.818,2.293-5.111,5.111-5.111   c2.818,0,5.11,2.293,5.11,5.111c0,2.818-2.293,5.11-5.11,5.11C47.182,32.617,44.889,30.325,44.889,27.507z M55.447,81.312   c1.407,0,2.547,1.14,2.547,2.547c0,1.407-1.14,2.547-2.547,2.547H44.553c-1.407,0-2.547-1.14-2.547-2.547   c0-1.407,1.14-2.547,2.547-2.547H55.447z M15.676,66.723l4.534-7.854c0.91-1.576,2.591-2.547,4.411-2.547h9.068   c1.82,0,3.501,0.971,4.411,2.547l4.534,7.854c0.91,1.576,0.91,3.518,0,5.094l-4.534,7.854c-0.91,1.576-2.591,2.547-4.411,2.547   h-9.068c-1.82,0-3.501-0.971-4.411-2.547l-4.534-7.854C14.766,70.24,14.766,68.299,15.676,66.723z"/>

    </g>
</svg>
